<svg width="12" height="7" viewBox="0 0 12 7" fill="none" xmlns="http://www.w3.org/2000/svg">
<path fill-rule="evenodd" clip-rule="evenodd" d="M5.92493 4.05182C5.95529 4.06562 5.98013 4.07582 5.99993 4.08338C6.01973 4.07582 6.04469 4.06562 6.07505 4.05182C6.21329 3.9893 6.39641 3.88586 6.6208 3.73718C7.06864 3.44041 7.58511 3.02784 8.08995 2.59187C8.58974 2.1601 9.05474 1.72545 9.39637 1.39724L9.9438 0.859198C10.4081 0.386423 11.1679 0.379403 11.6408 0.84373C12.1136 1.30808 12.1206 2.06782 11.6562 2.54075L11.0593 3.12768C10.6986 3.47437 10.2008 3.93986 9.65881 4.40811C9.12169 4.87204 8.51726 5.35961 7.94655 5.73786C7.66155 5.92663 7.36095 6.10435 7.06384 6.23876C6.78772 6.36356 6.40996 6.5 5.99993 6.5C5.59001 6.5 5.21226 6.36356 4.93614 6.23875C4.63903 6.10435 4.33831 5.92663 4.05343 5.73786C3.48273 5.35961 2.87832 4.87204 2.34122 4.40811C1.79916 3.93986 1.30139 3.47437 0.940621 3.12768L0.343796 2.54075C-0.120551 2.06782 -0.11365 1.30808 0.359204 0.84373C0.832035 0.379403 1.59187 0.386423 2.05622 0.859198L2.6036 1.39724C2.94519 1.72545 3.41024 2.1601 3.91003 2.59187C4.41487 3.02784 4.93134 3.44041 5.37918 3.73718C5.60357 3.88586 5.78669 3.9893 5.92493 4.05182Z" fill="#5D6670"/>
</svg>
