<svg width="18" height="10" viewBox="0 0 18 10" fill="none" xmlns="http://www.w3.org/2000/svg">
<path fill-rule="evenodd" clip-rule="evenodd" d="M6.76949 0.153807C5.9911 -0.190831 5.25639 0.108234 4.71967 0.41965C4.18676 0.728854 3.55318 1.22804 2.82146 1.80455L1.74604 2.65167C1.3174 2.98924 0.915792 3.30552 0.63041 3.60429C0.318431 3.93091 0 4.38281 0 5.00098C0 5.61915 0.318431 6.07105 0.630411 6.39767C0.915791 6.69644 1.31739 7.01272 1.74603 7.35029L2.82123 8.19727C3.55305 8.77386 4.1867 9.2731 4.71968 9.58234C5.25641 9.89375 5.99112 10.1928 6.76949 9.84816C7.57202 9.49283 7.81522 8.72704 7.90895 8.11696C7.99471 7.55883 7.99974 6.82979 7.99997 6.00098H17C17.5523 6.00098 18 5.55326 18 5.00098C18 4.44869 17.5523 4.00098 17 4.00098H7.99997C7.99974 3.17217 7.99471 2.44315 7.90895 1.88501C7.81521 1.27493 7.57199 0.50915 6.76949 0.153807Z" fill="#8654CC"/>
</svg>
