<svg width="13" height="13" viewBox="0 0 13 13" fill="none" xmlns="http://www.w3.org/2000/svg">
<path fill-rule="evenodd" clip-rule="evenodd" d="M4.60684 1.82307C4.90081 1.06197 5.60142 0.766721 6.17622 0.614025C6.74694 0.462413 7.51464 0.37133 8.40126 0.266138L9.70422 0.111419C10.2235 0.0496974 10.71 -0.00813125 11.1059 0.000943916C11.5387 0.0108646 12.0608 0.101324 12.4797 0.520271C12.8987 0.939218 12.9891 1.46129 12.9991 1.89409C13.0081 2.28998 12.9503 2.7765 12.8886 3.29578L12.7339 4.59849C12.6287 5.48523 12.5376 6.25302 12.386 6.8238C12.2333 7.39862 11.938 8.0992 11.1769 8.39317C10.3922 8.69625 9.70841 8.34207 9.23142 7.99213C8.79504 7.67199 8.29754 7.18131 7.73568 6.61976L1.63617 12.7193C1.26187 13.0936 0.655019 13.0936 0.280722 12.7193C-0.0935742 12.345 -0.0935739 11.7381 0.280722 11.3638L6.38023 5.26432C5.81869 4.70246 5.32802 4.20497 5.00788 3.76859C4.65794 3.29159 4.30379 2.60777 4.60684 1.82307Z" fill="#5D6670"/>
</svg>
