<svg width="20" height="18" viewBox="0 0 20 18" fill="none" xmlns="http://www.w3.org/2000/svg">
<path fill-rule="evenodd" clip-rule="evenodd" d="M0 4C0 3.44772 0.44772 3 1 3H4C4.55228 3 5 3.44772 5 4C5 4.55228 4.55228 5 4 5H1C0.44772 5 0 4.55228 0 4Z" fill="#8654CC"/>
<path fill-rule="evenodd" clip-rule="evenodd" d="M0 14C0 13.4477 0.44772 13 1 13H10C10.5523 13 11 13.4477 11 14C11 14.5523 10.5523 15 10 15H1C0.44772 15 0 14.5523 0 14Z" fill="#8654CC"/>
<path fill-rule="evenodd" clip-rule="evenodd" d="M15 14C15 13.4477 15.4477 13 16 13H19C19.5523 13 20 13.4477 20 14C20 14.5523 19.5523 15 19 15H16C15.4477 15 15 14.5523 15 14Z" fill="#8654CC"/>
<path fill-rule="evenodd" clip-rule="evenodd" d="M9 4C9 3.44772 9.4477 3 10 3H19C19.5523 3 20 3.44772 20 4C20 4.55229 19.5523 5 19 5H10C9.4477 5 9 4.55228 9 4Z" fill="#8654CC"/>
<path fill-rule="evenodd" clip-rule="evenodd" d="M6.97475 0.25H7.02525C7.46971 0.24999 7.84075 0.24999 8.1454 0.27077C8.4625 0.292411 8.762 0.339051 9.0524 0.45933C9.7262 0.738441 10.2616 1.27379 10.5407 1.94762C10.661 2.23801 10.7076 2.53754 10.7292 2.85464C10.75 3.15925 10.75 3.53028 10.75 3.97474V4.02526C10.75 4.46972 10.75 4.84075 10.7292 5.14537C10.7076 5.46247 10.661 5.76199 10.5407 6.05238C10.2616 6.72621 9.7262 7.2616 9.0524 7.5407C8.762 7.661 8.4625 7.7076 8.1454 7.7292C7.84075 7.75 7.46972 7.75 7.02526 7.75H6.97474C6.53028 7.75 6.15925 7.75 5.85464 7.7292C5.53754 7.7076 5.23801 7.661 4.94762 7.5407C4.27379 7.2616 3.73844 6.72621 3.45933 6.05238C3.33905 5.76199 3.29241 5.46247 3.27077 5.14537C3.24999 4.84075 3.24999 4.46971 3.25 4.02525V3.97475C3.24999 3.53029 3.24999 3.15925 3.27077 2.85464C3.29241 2.53754 3.33905 2.23801 3.45933 1.94762C3.73844 1.27379 4.27379 0.738441 4.94762 0.45933C5.23801 0.339051 5.53754 0.292411 5.85464 0.27077C6.15925 0.24999 6.53029 0.24999 6.97475 0.25Z" fill="#8654CC"/>
<path fill-rule="evenodd" clip-rule="evenodd" d="M12.9747 10.25H13.0253C13.4697 10.25 13.8408 10.25 14.1454 10.2708C14.4625 10.2924 14.762 10.339 15.0524 10.4593C15.7262 10.7384 16.2616 11.2738 16.5407 11.9476C16.661 12.238 16.7076 12.5375 16.7292 12.8546C16.75 13.1592 16.75 13.5303 16.75 13.9747V14.0253C16.75 14.4697 16.75 14.8408 16.7292 15.1454C16.7076 15.4625 16.661 15.762 16.5407 16.0524C16.2616 16.7262 15.7262 17.2616 15.0524 17.5407C14.762 17.661 14.4625 17.7076 14.1454 17.7292C13.8408 17.75 13.4697 17.75 13.0253 17.75H12.9747C12.5303 17.75 12.1592 17.75 11.8546 17.7292C11.5375 17.7076 11.238 17.661 10.9476 17.5407C10.2738 17.2616 9.7384 16.7262 9.4593 16.0524C9.339 15.762 9.2924 15.4625 9.2708 15.1454C9.25 14.8408 9.25 14.4697 9.25 14.0253V13.9747C9.25 13.5303 9.25 13.1592 9.2708 12.8546C9.2924 12.5375 9.339 12.238 9.4593 11.9476C9.7384 11.2738 10.2738 10.7384 10.9476 10.4593C11.238 10.339 11.5375 10.2924 11.8546 10.2708C12.1592 10.25 12.5303 10.25 12.9747 10.25Z" fill="#8654CC"/>
</svg>
