<svg width="6" height="12" viewBox="0 0 6 12" fill="none" xmlns="http://www.w3.org/2000/svg">
<path fill-rule="evenodd" clip-rule="evenodd" d="M3.55182 5.92493C3.56562 5.95529 3.57582 5.98013 3.58338 5.99993C3.57582 6.01973 3.56562 6.04469 3.55182 6.07505C3.4893 6.21329 3.38586 6.39641 3.23718 6.6208C2.94041 7.06864 2.52784 7.58511 2.09187 8.08995C1.6601 8.58974 1.22545 9.05474 0.897243 9.39637L0.359198 9.9438C-0.113577 10.4081 -0.120597 11.1679 0.34373 11.6408C0.80808 12.1136 1.56782 12.1206 2.04075 11.6562L2.62768 11.0593C2.97437 10.6986 3.43986 10.2008 3.90811 9.65881C4.37204 9.12169 4.85961 8.51726 5.23786 7.94655C5.42663 7.66155 5.60435 7.36095 5.73876 7.06384C5.86356 6.78772 6 6.40997 6 5.99993C6 5.59001 5.86356 5.21226 5.73876 4.93614C5.60435 4.63903 5.42663 4.33831 5.23786 4.05343C4.85961 3.48273 4.37204 2.87832 3.90811 2.34122C3.43986 1.79916 2.97437 1.30139 2.62768 0.940621L2.04075 0.343796C1.56782 -0.12055 0.80808 -0.11365 0.34373 0.359204C-0.120597 0.832035 -0.113577 1.59187 0.359198 2.05622L0.897243 2.6036C1.22545 2.94519 1.6601 3.41024 2.09187 3.91003C2.52784 4.41487 2.94041 4.93134 3.23718 5.37918C3.38586 5.60357 3.4893 5.78669 3.55182 5.92493Z" fill="#5D6670"/>
</svg>
