<svg width="31" height="34" viewBox="0 0 31 34" fill="none" xmlns="http://www.w3.org/2000/svg">
<path d="M6.07909 34C5.75272 34 5.41775 33.9615 5.0742 33.8844C4.73924 33.8073 4.42574 33.6832 4.13372 33.5119C3.8417 33.3407 3.59692 33.1052 3.39938 32.8055C3.20184 32.5058 3.06871 32.1291 3 31.6752H5.06132C5.11285 31.8122 5.19015 31.9321 5.29322 32.0349C5.40487 32.1291 5.538 32.2018 5.6926 32.2532C5.85578 32.296 6.01897 32.3174 6.18216 32.3174C6.29381 32.3174 6.40117 32.3089 6.50424 32.2917C6.60731 32.2746 6.69749 32.2446 6.77479 32.2018C6.86068 32.159 6.92509 32.1076 6.96804 32.0477C7.01098 31.9792 7.03245 31.8979 7.03245 31.8037C7.03245 31.6667 6.98521 31.5682 6.89074 31.5083C6.80485 31.4398 6.68031 31.3884 6.51712 31.3541C6.36252 31.3113 6.18216 31.2685 5.97603 31.2257C5.64106 31.1572 5.28033 31.0716 4.89384 30.9688C4.51593 30.8661 4.19385 30.7291 3.92759 30.5578C3.79876 30.4722 3.68711 30.378 3.59263 30.2752C3.49815 30.1639 3.42085 30.0483 3.36073 29.9284C3.3092 29.8 3.26625 29.6673 3.2319 29.5303C3.20613 29.3847 3.19325 29.2306 3.19325 29.0679C3.19325 28.6911 3.27484 28.37 3.43803 28.1046C3.60981 27.8391 3.82882 27.6251 4.09507 27.4624C4.36992 27.2997 4.67482 27.1841 5.00978 27.1156C5.34475 27.0385 5.67971 27 6.01468 27C6.48706 27 6.92509 27.0771 7.32877 27.2312C7.73244 27.3768 8.06741 27.6165 8.33366 27.9505C8.6085 28.2758 8.78028 28.704 8.84899 29.2349H6.87785C6.85209 29.0636 6.75332 28.9266 6.58154 28.8239C6.40976 28.7211 6.19504 28.6697 5.93738 28.6697C5.8429 28.6697 5.74842 28.6826 5.65395 28.7083C5.55947 28.7254 5.47358 28.7511 5.39628 28.7853C5.32757 28.811 5.26745 28.8538 5.21592 28.9138C5.17297 28.9737 5.1515 29.0465 5.1515 29.1321C5.1515 29.192 5.16868 29.252 5.20303 29.3119C5.24598 29.3719 5.3061 29.4275 5.3834 29.4789C5.46929 29.5217 5.57665 29.5645 5.70548 29.6073C5.9975 29.6673 6.28093 29.7272 6.55577 29.7872C6.83062 29.8385 7.09257 29.8899 7.34165 29.9413C7.61649 30.0012 7.88275 30.0997 8.14041 30.2367C8.39808 30.3651 8.6085 30.5492 8.77169 30.789C8.94347 31.0287 9.02935 31.3541 9.02935 31.7651C9.02935 32.1933 8.93917 32.5529 8.75881 32.844C8.58703 33.1352 8.35513 33.3621 8.06311 33.5248C7.77109 33.6875 7.4533 33.8073 7.10975 33.8844C6.7662 33.9615 6.42265 34 6.07909 34Z" fill="#5D6670"/>
<path d="M12.13 34C11.8122 34 11.5116 33.9572 11.2282 33.8716C10.9447 33.7859 10.6914 33.6575 10.468 33.4862C10.2447 33.315 10.0687 33.1009 9.93984 32.844C9.811 32.5872 9.74659 32.2875 9.74659 31.945C9.74659 31.4569 9.84536 31.0716 10.0429 30.789C10.249 30.4979 10.5239 30.2838 10.8674 30.1468C11.2196 30.0012 11.619 29.907 12.0656 29.8642C12.5122 29.8214 12.976 29.8 13.457 29.8H14.1011C14.1011 29.5859 14.0582 29.4018 13.9723 29.2477C13.895 29.085 13.7747 28.9566 13.6116 28.8624C13.4484 28.7682 13.2465 28.7211 13.006 28.7211C12.8343 28.7211 12.6711 28.7468 12.5165 28.7982C12.3705 28.841 12.2459 28.9052 12.1429 28.9908C12.0484 29.0679 11.984 29.1664 11.9496 29.2862H9.90119C9.96131 28.8838 10.0858 28.5413 10.2748 28.2587C10.4723 27.9676 10.7128 27.7321 10.9963 27.5523C11.2883 27.3725 11.6147 27.2398 11.9754 27.1541C12.3361 27.0599 12.7054 27.0128 13.0833 27.0128C14.0796 27.0128 14.8226 27.2911 15.3121 27.8477C15.8017 28.4043 16.0465 29.2092 16.0465 30.2624V33.8972H14.1784L14.1655 33.011C13.9508 33.3364 13.706 33.5676 13.4312 33.7046C13.1564 33.8416 12.8987 33.9229 12.6582 33.9486C12.4177 33.9829 12.2416 34 12.13 34ZM12.6453 32.4202C12.903 32.4202 13.1435 32.3645 13.3668 32.2532C13.5901 32.1333 13.7705 31.9835 13.9079 31.8037C14.0539 31.6153 14.1269 31.4141 14.1269 31.2V31.0972H12.8643C12.7269 31.0972 12.5895 31.1058 12.4521 31.1229C12.3232 31.1401 12.2073 31.1743 12.1042 31.2257C12.0012 31.2685 11.9196 31.3327 11.8594 31.4183C11.7993 31.504 11.7693 31.6153 11.7693 31.7523C11.7693 31.8979 11.8079 32.022 11.8852 32.1248C11.9625 32.219 12.0656 32.2917 12.1944 32.3431C12.3318 32.3945 12.4821 32.4202 12.6453 32.4202Z" fill="#5D6670"/>
<path d="M18.9615 33.8972L16.6554 27.1284H18.8842L20.34 32.2917L21.7829 27.1284H23.9989L21.6928 33.8972H18.9615Z" fill="#5D6670"/>
<path d="M27.7921 34C27.0878 34 26.478 33.8587 25.9627 33.5761C25.4559 33.2936 25.0651 32.8954 24.7903 32.3817C24.5154 31.8593 24.378 31.2471 24.378 30.545C24.378 29.8428 24.5197 29.2263 24.8032 28.6954C25.0866 28.1645 25.4817 27.7492 25.9884 27.4495C26.5037 27.1498 27.1093 27 27.805 27C28.3117 27 28.7583 27.0813 29.1448 27.244C29.5399 27.4067 29.8749 27.6379 30.1497 27.9376C30.4331 28.2373 30.6436 28.5927 30.781 29.0037C30.927 29.4147 31 29.8642 31 30.3523C30.9914 30.4807 30.9828 30.6092 30.9742 30.7376C30.9656 30.8575 30.9442 30.9817 30.9098 31.1101H26.4007C26.4264 31.3242 26.4909 31.5211 26.5939 31.7009C26.697 31.8807 26.843 32.022 27.032 32.1248C27.2209 32.2275 27.4614 32.2789 27.7534 32.2789C27.9596 32.2789 28.1442 32.2575 28.3074 32.2147C28.4792 32.1633 28.6209 32.0948 28.7325 32.0092C28.8442 31.915 28.9172 31.8122 28.9516 31.7009H30.9613C30.8497 32.2404 30.635 32.6813 30.3172 33.0239C29.9994 33.3578 29.6215 33.6061 29.1835 33.7688C28.7454 33.9229 28.2816 34 27.7921 34ZM26.4393 29.7358H29.0546C29.0546 29.556 29.0074 29.3804 28.9129 29.2092C28.827 29.0379 28.6896 28.9009 28.5007 28.7982C28.3117 28.6868 28.0669 28.6312 27.7663 28.6312C27.4743 28.6312 27.2295 28.6868 27.032 28.7982C26.8344 28.9095 26.6884 29.0508 26.5939 29.222C26.4995 29.3933 26.4479 29.5645 26.4393 29.7358Z" fill="#5D6670"/>
<path d="M3.62804 24.7241L20.7984 0.310345H27.3001L10.2735 24.7241H3.62804ZM24.2827 25C23.0135 25 21.864 24.7471 20.8343 24.2414C19.8285 23.7356 19.0263 23.0115 18.4276 22.069C17.8289 21.1034 17.5295 19.954 17.5295 18.6207C17.5295 17.2874 17.8289 16.1379 18.4276 15.1724C19.0502 14.2069 19.8764 13.4713 20.9061 12.9655C21.9359 12.4368 23.0973 12.1724 24.3905 12.1724C25.6597 12.1724 26.7852 12.4253 27.7671 12.931C28.7729 13.4138 29.5631 14.1264 30.1379 15.069C30.7126 16.0115 31 17.1609 31 18.5172C31 19.8966 30.7007 21.069 30.102 22.0345C29.5033 23 28.6891 23.7356 27.6593 24.2414C26.6535 24.7471 25.528 25 24.2827 25ZM24.2827 20.5862C24.7617 20.5862 25.1568 20.4943 25.4681 20.3103C25.7795 20.1264 26.007 19.8851 26.1506 19.5862C26.2943 19.2874 26.3662 18.977 26.3662 18.6552C26.3662 18.3333 26.2823 18.023 26.1147 17.7241C25.971 17.4253 25.7435 17.1839 25.4322 17C25.1448 16.7931 24.7617 16.6897 24.2827 16.6897C23.5404 16.6897 22.9896 16.908 22.6304 17.3448C22.2951 17.7586 22.1394 18.2184 22.1634 18.7241C22.1873 19.1839 22.3669 19.6092 22.7022 20C23.0375 20.3908 23.5643 20.5862 24.2827 20.5862ZM6.71727 12.8276C5.4241 12.8276 4.27462 12.5747 3.26883 12.069C2.26304 11.5632 1.4608 10.8391 0.862109 9.89655C0.28737 8.93103 0 7.7931 0 6.48276C0 5.12644 0.299343 3.96552 0.89803 3C1.49672 2.03448 2.31093 1.29885 3.34067 0.793104C4.37041 0.264368 5.53187 0 6.82503 0C8.09424 0 9.21978 0.252873 10.2016 0.758619C11.2074 1.24138 11.9977 1.95402 12.5724 2.89655C13.1472 3.83908 13.4345 4.98851 13.4345 6.34483C13.4345 7.70115 13.1352 8.87356 12.5365 9.86207C11.9618 10.8276 11.1595 11.5632 10.1298 12.069C9.12399 12.5747 7.98648 12.8276 6.71727 12.8276ZM6.71727 8.37931C7.19621 8.37931 7.59135 8.28736 7.90266 8.10345C8.21398 7.91954 8.44148 7.67816 8.58517 7.37931C8.72885 7.08046 8.80069 6.77011 8.80069 6.44828C8.80069 6.12644 8.71688 5.81609 8.54925 5.51724C8.40556 5.21839 8.17806 4.97701 7.86674 4.7931C7.57937 4.58621 7.19621 4.48276 6.71727 4.48276C5.97489 4.48276 5.4241 4.70115 5.06489 5.13793C4.72963 5.55172 4.57397 6.01149 4.59791 6.51724C4.62186 6.97701 4.80147 7.4023 5.13673 7.7931C5.472 8.18391 5.99884 8.37931 6.71727 8.37931Z" fill="#5D6670"/>
</svg>
