<svg width="6" height="12" viewBox="0 0 6 12" fill="none" xmlns="http://www.w3.org/2000/svg">
<path fill-rule="evenodd" clip-rule="evenodd" d="M2.44818 5.92493C2.43438 5.95529 2.42418 5.98013 2.41662 5.99993C2.42418 6.01973 2.43438 6.04469 2.44818 6.07505C2.5107 6.21329 2.61414 6.39641 2.76282 6.6208C3.05959 7.06864 3.47216 7.58511 3.90813 8.08995C4.3399 8.58974 4.77455 9.05474 5.10276 9.39637L5.6408 9.9438C6.11358 10.4081 6.1206 11.1679 5.65627 11.6408C5.19192 12.1136 4.43218 12.1206 3.95925 11.6562L3.37232 11.0593C3.02563 10.6986 2.56014 10.2008 2.09189 9.65881C1.62796 9.12169 1.14039 8.51726 0.762137 7.94655C0.573372 7.66155 0.395648 7.36095 0.261245 7.06384C0.136442 6.78772 0 6.40997 0 5.99993C0 5.59001 0.136442 5.21226 0.261245 4.93614C0.395648 4.63903 0.573372 4.33831 0.762137 4.05343C1.14039 3.48273 1.62796 2.87832 2.09189 2.34122C2.56014 1.79916 3.02563 1.30139 3.37232 0.940621L3.95925 0.343796C4.43218 -0.12055 5.19192 -0.11365 5.65627 0.359204C6.1206 0.832035 6.11358 1.59187 5.6408 2.05622L5.10276 2.6036C4.77455 2.94519 4.3399 3.41024 3.90813 3.91003C3.47216 4.41487 3.05959 4.93134 2.76282 5.37918C2.61414 5.60357 2.5107 5.78669 2.44818 5.92493Z" fill="#5D6670"/>
</svg>
