<svg width="24" height="24" viewBox="0 0 24 24" fill="none" xmlns="http://www.w3.org/2000/svg">
<path d="M23.6806 22.123L18.8812 17.3364C20.1697 15.6282 20.856 13.3104 20.9094 10.4104C20.7949 3.74043 17.0832 0.0437733 10.4487 0C3.73456 0.042679 0 3.95273 0 10.4093C0 17.1887 3.73784 20.8186 10.4618 20.858C13.3301 20.8405 15.6322 20.1729 17.3385 18.8827L22.1423 23.6748C22.2427 23.7781 22.3629 23.8601 22.4955 23.916C22.6282 23.9718 22.7707 24.0004 22.9145 24C23.0584 23.9996 23.2008 23.9702 23.3331 23.9136C23.4654 23.857 23.5851 23.7743 23.685 23.6704C23.8876 23.4639 24.0008 23.1856 24 22.8958C23.9992 22.6061 23.8844 22.3284 23.6806 22.123ZM2.18204 10.429C2.28787 4.91903 4.99579 2.22259 10.4476 2.18867C15.8471 2.22368 18.6336 5.0022 18.7274 10.4093C18.6248 16.0123 15.9944 18.6365 10.4618 18.6693C4.92269 18.6365 2.29114 16.0188 2.18204 10.429Z" fill="#5D6670"/>
</svg>
