<svg width="24" height="24" viewBox="0 0 24 24" fill="none" xmlns="http://www.w3.org/2000/svg">
<path fill-rule="evenodd" clip-rule="evenodd" d="M13.1384 13.9827C12.8283 14.6746 13.0974 15.3276 13.3776 15.8047C13.6558 16.2784 14.105 16.8416 14.6238 17.492L15.386 18.448C15.6898 18.829 15.9744 19.186 16.2432 19.4396C16.5371 19.7169 16.9438 20 17.5 20C18.0562 20 18.4629 19.7169 18.7568 19.4396C19.0256 19.186 19.3102 18.829 19.614 18.448L20.3761 17.4922C20.8949 16.8417 21.3442 16.2785 21.6224 15.8047C21.9026 15.3276 22.1717 14.6746 21.8616 13.9827C21.5419 13.2693 20.8528 13.0531 20.3038 12.9698C19.8016 12.8936 19.1456 12.8891 18.3998 12.8889L18.3998 4.88889C18.3998 4.39797 17.997 4 17.5 4C17.003 4 16.6002 4.39797 16.6002 4.88889L16.6002 12.8889C15.8544 12.8891 15.1984 12.8936 14.6962 12.9698C14.1472 13.0531 13.4581 13.2693 13.1384 13.9827Z" fill="#8654CC"/>
<path fill-rule="evenodd" clip-rule="evenodd" d="M10.8616 10.0173C11.1717 9.32543 10.9026 8.67235 10.6224 8.19527C10.3442 7.72157 9.89498 7.15839 9.37623 6.50796L8.61397 5.55204C8.31021 5.17102 8.02562 4.81404 7.75678 4.56037C7.46288 4.28305 7.05624 4 6.5 4C5.94376 4 5.53712 4.28305 5.24323 4.56037C4.97439 4.81404 4.68979 5.17102 4.38604 5.55203L3.62391 6.50776C3.10508 7.15828 2.65585 7.72152 2.37759 8.19527C2.09737 8.67237 1.8283 9.32545 2.1384 10.0173C2.45813 10.7307 3.14721 10.9469 3.69617 11.0302C4.19839 11.1064 4.8544 11.1109 5.60018 11.1111L5.60018 19.1111C5.60018 19.602 6.00305 20 6.50001 20C6.99696 20 7.39983 19.602 7.39983 19.1111L7.39983 11.1111C8.1456 11.1109 8.8016 11.1064 9.30382 11.0302C9.85279 10.9469 10.5419 10.7307 10.8616 10.0173Z" fill="#8654CC"/>
</svg>
