<svg width="18" height="11" viewBox="0 0 18 11" fill="none" xmlns="http://www.w3.org/2000/svg">
<path fill-rule="evenodd" clip-rule="evenodd" d="M11.2305 0.652831C12.0089 0.308193 12.7436 0.607257 13.2803 0.918673C13.8132 1.22788 14.4468 1.72706 15.1785 2.30357L16.254 3.15069C16.6826 3.48826 17.0842 3.80454 17.3696 4.10331C17.6816 4.42993 18 4.88184 18 5.5C18 6.11817 17.6816 6.57008 17.3696 6.8967C17.0842 7.19547 16.6826 7.51174 16.254 7.84931L15.1788 8.69629C14.4469 9.27288 13.8133 9.77213 13.2803 10.0814C12.7436 10.3928 12.0089 10.6918 11.2305 10.3472C10.428 9.99186 10.1848 9.22606 10.091 8.61598C10.0053 8.05785 10.0003 7.32881 10 6.5H1.00003C0.447746 6.5 3.05176e-05 6.05228 3.05176e-05 5.5C3.05176e-05 4.94772 0.447746 4.5 1.00003 4.5H10C10.0003 3.6712 10.0053 2.94217 10.091 2.38404C10.1848 1.77395 10.428 1.00817 11.2305 0.652831Z" fill="#8654CC"/>
</svg>
