<svg width="20" height="19" viewBox="0 0 20 19" fill="none" xmlns="http://www.w3.org/2000/svg">
<path d="M5.69146 9.09064C5.3659 9.09064 5.05367 9.22151 4.82346 9.45445C4.59325 9.68739 4.46392 10.0033 4.46392 10.3328V14.7579C4.46392 15.0873 4.59325 15.4033 4.82346 15.6362C5.05367 15.8691 5.3659 16 5.69146 16C6.01703 16 6.32926 15.8691 6.55947 15.6362C6.78968 15.4033 6.91901 15.0873 6.91901 14.7579V10.3328C6.91901 10.0033 6.78968 9.68739 6.55947 9.45445C6.32926 9.22151 6.01703 9.09064 5.69146 9.09064ZM9.37409 12.817V14.7579C9.37409 15.0873 9.50342 15.4033 9.73363 15.6362C9.96384 15.8691 10.2761 16 10.6016 16C10.9272 16 11.2394 15.8691 11.4696 15.6362C11.6998 15.4033 11.8292 15.0873 11.8292 14.7579V12.817C11.8292 12.4876 11.6998 12.1716 11.4696 11.9387C11.2394 11.7057 10.9272 11.5749 10.6016 11.5749C10.2761 11.5749 9.96384 11.7057 9.73363 11.9387C9.50342 12.1716 9.37409 12.4876 9.37409 12.817ZM14.2843 9.50468V14.7579C14.2843 15.0873 14.4136 15.4033 14.6438 15.6362C14.874 15.8691 15.1862 16 15.5118 16C15.8374 16 16.1496 15.8691 16.3798 15.6362C16.61 15.4033 16.7393 15.0873 16.7393 14.7579V9.50468C16.7393 9.17525 16.61 8.85931 16.3798 8.62637C16.1496 8.39343 15.8374 8.26256 15.5118 8.26256C15.1862 8.26256 14.874 8.39343 14.6438 8.62637C14.4136 8.85931 14.2843 9.17525 14.2843 9.50468ZM2.8272 7.84852C3.10582 7.84912 3.37621 7.75295 3.59318 7.57609L5.45741 6.06816C5.83385 5.76236 6.30868 5.60809 6.79069 5.63499C7.2727 5.66189 7.72788 5.86806 8.0688 6.2139C8.85558 6.9999 9.90367 7.46089 11.0084 7.50683C12.113 7.55276 13.195 7.18035 14.0428 6.46232L17.1232 3.82489C17.2544 3.72225 17.3637 3.59376 17.4445 3.44718C17.5253 3.30059 17.5759 3.13896 17.5933 2.97204C17.6106 2.80512 17.5944 2.63638 17.5455 2.47599C17.4966 2.31561 17.4161 2.16692 17.3088 2.03889C17.2015 1.91086 17.0697 1.80616 16.9214 1.73111C16.773 1.65606 16.6112 1.61221 16.4456 1.60221C16.28 1.59221 16.1141 1.61627 15.958 1.67293C15.8019 1.7296 15.6587 1.8177 15.5372 1.9319L12.4577 4.56933C12.0805 4.88758 11.5996 5.05206 11.109 5.03062C10.6183 5.00918 10.1532 4.80336 9.80455 4.4534C9.03698 3.67454 8.01218 3.20996 6.92683 3.14882C5.84148 3.08769 4.77205 3.43432 3.9238 4.12217L2.06039 5.63673C1.86187 5.79754 1.7176 6.01677 1.64753 6.26413C1.57745 6.51149 1.58503 6.77477 1.66921 7.01758C1.75339 7.2604 1.91002 7.47076 2.11746 7.61961C2.32489 7.76847 2.5729 7.84845 2.8272 7.84852Z" fill="white" fill-opacity="0.8"/>
<path d="M20 2.4C20 3.72548 18.9255 4.8 17.6 4.8C16.2745 4.8 15.2 3.72548 15.2 2.4C15.2 1.07452 16.2745 0 17.6 0C18.9255 0 20 1.07452 20 2.4Z" fill="white"/>
<path d="M4.8 6.4C4.8 7.72548 3.72548 8.8 2.4 8.8C1.07452 8.8 0 7.72548 0 6.4C0 5.07452 1.07452 4 2.4 4C3.72548 4 4.8 5.07452 4.8 6.4Z" fill="white"/>
</svg>
